<?xml version="1.0" standalone="no"?>
<!DOCTYPE svg PUBLIC "-//W3C//DTD SVG 20010904//EN"
 "http://www.w3.org/TR/2001/REC-SVG-20010904/DTD/svg10.dtd">
<svg version="1.0" xmlns="http://www.w3.org/2000/svg"
 width="2655.000000pt" height="2655.000000pt" viewBox="0 0 2655.000000 2655.000000"
 preserveAspectRatio="xMidYMid meet">
<metadata>
Created by potrace 1.11, written by Peter Selinger 2001-2013
</metadata>
<g transform="translate(0.000000,2655.000000) scale(0.100000,-0.100000)"
fill="#000000" stroke="none">
<path d="M18835 23003 c-87 -35 -175 -114 -213 -190 -10 -21 -27 -69 -36 -108
-29 -120 -28 -119 -114 -144 -167 -49 -280 -127 -384 -266 -79 -105 -139 -216
-172 -320 -55 -172 -153 -623 -236 -1090 -18 -99 -34 -182 -36 -184 -1 -1 -99
32 -216 74 -117 43 -385 135 -594 206 -210 70 -415 144 -455 165 -93 46 -220
170 -267 261 l-32 61 -38 -10 c-70 -19 -74 -24 -57 -66 41 -99 157 -235 260
-305 83 -57 160 -87 575 -227 365 -122 751 -259 789 -280 15 -7 21 -21 21 -43
0 -23 8 -41 28 -60 33 -32 156 -90 240 -113 66 -18 85 -15 143 28 14 9 41 1
150 -44 324 -136 631 -280 1154 -543 410 -206 580 -287 635 -301 132 -34 328
-22 455 26 l25 10 -26 53 -27 54 -61 -20 c-96 -30 -225 -34 -326 -8 -89 22
-145 49 -720 342 -347 176 -540 268 -874 414 -201 89 -209 93 -221 128 -7 21
-40 62 -80 100 l-68 65 6 104 c10 182 93 508 180 705 43 98 143 268 197 333
l28 34 35 -27 36 -27 -65 -96 c-114 -168 -200 -361 -245 -553 l-20 -83 21 -23
c34 -36 139 -84 210 -95 36 -6 157 -13 270 -17 223 -6 265 -15 275 -56 4 -14
-12 -159 -34 -323 -22 -165 -36 -300 -32 -302 5 -2 122 -59 261 -128 139 -68
255 -123 257 -121 2 2 17 116 33 253 16 137 49 411 74 610 42 331 45 365 33
412 -25 94 -108 173 -200 191 -29 5 -104 12 -167 16 -63 3 -116 8 -118 10 -3
2 8 45 22 96 38 131 86 217 161 288 70 65 120 93 215 117 219 56 779 -80 1200
-291 51 -26 96 -43 100 -38 15 17 190 305 190 312 0 10 -286 143 -487 227
-208 86 -387 152 -583 214 -247 78 -220 60 -220 144 0 92 -36 173 -104 233
-56 49 -116 72 -211 80 -63 6 -74 10 -115 46 -53 46 -95 69 -169 91 -71 21
-203 20 -256 -1z m413 -516 c46 -65 171 -179 234 -212 32 -17 58 -33 58 -37 0
-12 -86 -77 -121 -92 -50 -21 -62 -9 -53 50 15 90 1 105 -91 97 -78 -7 -126
13 -150 62 -14 31 -14 38 0 72 15 37 71 103 86 103 5 0 21 -19 37 -43z"/>
<path d="M8715 22604 c-39 -5 -573 -99 -727 -128 -113 -22 -251 -71 -356 -127
-90 -47 -97 -49 -150 -43 -91 10 -240 -12 -517 -76 -143 -33 -268 -60 -278
-60 -9 0 -48 15 -85 34 -189 94 -426 137 -647 116 -132 -13 -800 -164 -923
-209 -299 -109 -531 -315 -667 -595 -80 -163 -106 -273 -112 -471 -6 -190 -1
-228 74 -553 31 -133 54 -244 52 -247 -3 -2 -54 1 -114 7 -134 13 -462 4 -600
-16 -242 -36 -515 -113 -725 -206 -52 -23 -102 -43 -110 -46 -9 -2 -31 17 -55
47 -22 28 -81 85 -131 127 -145 122 -311 208 -501 259 -90 24 -115 27 -293 27
-308 1 -385 -24 -885 -290 -396 -210 -453 -246 -565 -351 -256 -240 -392 -555
-393 -908 0 -212 39 -378 133 -565 36 -72 768 -1450 1695 -3190 133 -250 254
-479 269 -508 l27 -54 -83 -86 c-336 -350 -565 -770 -677 -1243 -6 -25 -20
-102 -32 -170 -30 -173 -38 -574 -15 -774 30 -270 92 -546 171 -761 35 -95
160 -360 206 -436 l22 -37 -104 -109 c-279 -288 -411 -610 -410 -1001 0 -199
24 -329 105 -575 105 -317 210 -500 424 -741 440 -493 1089 -861 1792 -1015
631 -137 1364 -118 1990 54 69 19 125 34 126 33 0 -1 -5 -60 -12 -132 -23
-239 -37 -652 -30 -885 4 -124 31 -643 61 -1155 42 -706 59 -952 74 -1020 94
-448 393 -799 811 -950 214 -77 363 -86 885 -56 204 12 415 29 470 38 178 27
360 99 519 204 l78 52 77 -41 c96 -52 259 -106 376 -127 55 -10 148 -16 240
-16 207 0 819 37 935 57 179 31 349 98 492 193 l75 50 85 -43 c156 -78 323
-121 515 -132 156 -9 927 40 1055 66 221 46 430 150 579 287 l59 55 130 -56
c245 -105 485 -175 754 -218 125 -20 176 -23 441 -23 287 1 305 2 426 28 147
31 282 74 393 124 76 34 81 35 130 24 200 -47 319 -51 796 -22 381 24 510 47
675 122 l68 31 91 -26 c216 -60 299 -63 806 -32 228 14 450 32 492 40 328 63
613 236 804 489 26 34 52 61 58 59 6 -2 48 -26 94 -54 106 -64 339 -175 465
-222 338 -126 682 -188 1052 -189 228 0 368 12 570 48 382 70 799 247 1107
468 l78 56 73 -43 c518 -306 1214 -426 1893 -327 677 100 1259 402 1637 851
268 319 438 702 493 1115 20 142 22 424 5 575 -45 398 -180 758 -393 1049
l-55 74 53 101 c205 395 172 854 -88 1233 -186 272 -667 627 -1066 787 -254
102 -601 176 -825 176 -62 0 -68 2 -62 18 6 17 135 380 672 1897 146 413 353
998 460 1300 108 303 208 591 224 640 189 593 71 1188 -316 1594 -170 178
-364 301 -602 384 -238 83 -444 106 -790 89 l-236 -12 -41 26 c-104 69 -431
307 -856 624 -256 191 -535 396 -620 457 -815 579 -1367 823 -1865 823 -122 0
-140 -5 -64 -18 l43 -7 12 -106 c50 -451 201 -845 482 -1259 94 -139 201 -282
377 -505 l118 -150 -39 -7 c-21 -3 -85 -7 -141 -8 l-102 -2 -108 83 c-314 242
-742 598 -1068 888 -433 387 -807 743 -1765 1680 -1060 1038 -1577 1514 -2165
1997 -358 293 -792 621 -805 608 -4 -5 -68 -92 -143 -194 -221 -303 -829
-1102 -834 -1096 -1 1 9 37 22 79 110 345 55 727 -147 1014 -50 72 -367 336
-460 384 -153 78 -249 98 -756 155 -338 38 -427 45 -522 41 -252 -12 -458 -83
-659 -228 l-84 -60 -25 33 c-49 65 -188 195 -262 245 -127 85 -265 146 -407
179 -48 11 -738 94 -787 94 -6 0 -36 32 -66 71 -164 212 -445 383 -717 435
-79 15 -263 25 -328 18z m473 -1050 c43 -18 88 -58 108 -96 7 -14 172 -910
365 -1990 260 -1456 349 -1977 347 -2019 -5 -67 -33 -111 -88 -139 -39 -20
-675 -140 -742 -140 -52 0 -100 32 -125 81 -16 32 -48 193 -117 579 -52 294
-181 1017 -286 1605 -105 589 -220 1233 -255 1433 -36 199 -65 386 -65 415 0
66 25 115 70 142 24 13 141 39 375 81 187 34 348 63 358 63 10 1 34 -6 55 -15z
m-2911 -310 c49 -36 69 -93 133 -373 51 -224 62 -283 57 -328 -7 -67 -48 -139
-95 -166 -37 -22 -658 -167 -715 -167 -62 0 -110 31 -141 92 -32 63 -156 594
-156 666 0 61 28 107 82 133 24 11 185 53 358 94 349 82 423 89 477 49z m-624
-11 c-8 -22 -23 -33 -43 -33 -10 1 -5 9 13 25 33 30 39 31 30 8z m2000 1 c42
-21 75 -52 93 -86 13 -25 58 -215 260 -1098 36 -157 79 -343 95 -415 17 -71
59 -258 95 -415 36 -157 114 -499 174 -760 60 -261 145 -635 190 -830 44 -195
83 -363 86 -372 3 -12 -55 11 -203 78 -261 120 -505 225 -743 321 -102 41
-186 76 -188 77 -3 3 -116 493 -337 1461 -176 769 -291 1269 -336 1465 -70
299 -65 372 26 423 29 16 673 165 718 166 21 1 52 -6 70 -15z m7469 -504 c107
-168 233 -366 280 -440 454 -722 726 -1297 902 -1906 53 -184 130 -517 124
-536 -2 -5 -50 -24 -108 -44 -207 -68 -439 -200 -646 -366 -50 -40 -171 -143
-269 -228 -333 -290 -511 -420 -709 -515 -106 -51 -278 -115 -307 -115 -10 0
-15 17 -16 58 -1 31 -11 100 -21 152 -11 53 -17 111 -14 129 4 27 2 32 -9 26
-8 -5 -113 -74 -234 -153 -451 -298 -623 -402 -660 -402 -21 0 -18 34 6 83 12
23 97 159 189 302 167 260 325 517 416 676 79 138 253 464 249 467 -4 4 -174
-112 -280 -192 -388 -291 -725 -602 -1324 -1221 -229 -236 -459 -475 -512
-529 l-97 -100 -26 17 c-14 10 -38 36 -54 59 -23 35 -27 52 -27 107 1 107 64
237 222 456 250 346 328 476 372 619 29 94 27 122 -16 207 -67 130 -98 121
-225 -64 -149 -218 -233 -283 -363 -281 -38 0 -85 7 -103 15 l-34 14 188 250
c277 370 505 660 1081 1381 953 1193 1311 1661 1713 2241 58 84 108 149 111
145 3 -4 94 -144 201 -312z m-4826 255 c176 -20 331 -38 346 -41 38 -8 75 -40
98 -84 11 -21 71 -262 135 -536 63 -275 179 -775 257 -1112 78 -336 145 -609
149 -605 3 5 225 472 493 1038 279 590 498 1042 514 1058 50 52 69 53 481 7
207 -23 394 -46 416 -52 88 -23 126 -80 105 -159 -7 -24 -234 -455 -505 -959
-271 -503 -662 -1234 -869 -1623 l-377 -709 -278 -336 c-152 -186 -333 -406
-401 -489 -83 -102 -130 -151 -140 -149 -8 3 -35 6 -60 7 -34 2 -81 21 -190
77 -159 82 -353 184 -359 188 -2 2 6 18 17 36 11 18 138 260 281 537 l261 503
-151 532 c-648 2280 -769 2712 -769 2753 0 58 25 110 64 134 44 27 113 25 482
-16z m-3755 -1046 c53 -26 97 -74 108 -117 6 -20 32 -136 60 -257 28 -121 125
-546 216 -944 91 -398 164 -725 162 -727 -2 -2 -37 7 -77 21 l-73 25 -51 -32
c-181 -114 -560 -374 -690 -473 l-33 -25 -12 58 c-13 56 -67 294 -195 852
-252 1100 -296 1297 -296 1325 0 69 36 132 92 161 22 11 414 106 628 152 55
12 113 5 161 -19z m-4666 -613 c26 -8 63 -30 81 -47 23 -22 143 -238 356 -641
178 -334 325 -607 328 -608 3 0 22 60 43 133 112 386 269 609 530 751 497 270
1088 296 1589 69 269 -121 541 -330 720 -552 243 -302 424 -705 470 -1052 11
-88 11 -90 -11 -105 -64 -45 -567 -452 -951 -769 -685 -566 -988 -805 -1340
-1057 -174 -123 -176 -125 -299 -162 -146 -43 -287 -95 -390 -142 -41 -19 -79
-34 -85 -34 -6 0 -95 159 -199 353 -103 193 -211 397 -241 452 -1404 2636
-1490 2799 -1494 2858 -5 71 15 131 61 174 39 38 644 362 707 379 59 17 68 17
125 0z m15337 -1696 c151 -180 274 -341 359 -473 80 -123 207 -378 248 -501
l34 -99 -24 -18 c-13 -10 -150 -94 -304 -186 -314 -187 -414 -250 -511 -323
-61 -47 -72 -52 -148 -61 -107 -13 -261 -50 -366 -88 -46 -17 -85 -31 -85 -31
-4 0 15 101 29 155 36 136 113 300 214 455 114 175 205 279 372 422 40 35 42
39 36 75 -12 64 -16 73 -46 88 -39 20 -69 19 -134 -6 -129 -48 -327 -212 -375
-312 l-23 -47 -26 19 c-67 47 -92 94 -92 166 0 108 79 237 320 520 173 204
287 363 310 434 l14 44 34 -39 c19 -21 93 -109 164 -194z m-10053 93 c22 -48
195 -303 303 -449 58 -76 214 -274 348 -439 374 -462 546 -699 700 -968 54
-94 156 -300 163 -328 1 -5 -52 -31 -118 -57 -66 -27 -142 -60 -169 -74 l-50
-25 -58 24 c-71 28 -225 67 -333 84 -89 13 -298 16 -475 6 -63 -4 -205 -12
-315 -17 -373 -20 -578 -66 -808 -181 -68 -34 -211 -125 -268 -170 -25 -20
-39 -25 -46 -18 -8 8 16 44 81 123 103 126 196 253 248 341 53 89 103 193 96
201 -9 8 -224 -63 -388 -128 -162 -64 -377 -169 -513 -251 l-107 -65 -53 14
c-143 38 -354 73 -552 92 -110 10 -581 6 -685 -5 -47 -6 -86 -9 -88 -8 -1 1
53 47 120 101 68 54 301 243 518 419 956 778 1421 1134 1948 1493 177 121 473
312 482 312 4 0 12 -12 19 -27z m7786 -2818 c540 -71 1055 -321 1447 -703 378
-368 625 -812 733 -1317 44 -207 50 -277 50 -570 0 -246 -3 -296 -23 -410 -73
-412 -226 -788 -446 -1095 -112 -156 -147 -192 -227 -234 -203 -105 -373 -246
-497 -411 l-68 -90 -150 -75 c-187 -93 -322 -144 -440 -164 -50 -8 -142 -32
-205 -52 -150 -47 -238 -50 -394 -12 -60 15 -148 32 -195 38 -107 13 -408 13
-521 0 -80 -9 -94 -8 -174 15 -403 117 -763 328 -1069 625 -437 425 -700 961
-772 1574 -18 155 -20 439 -4 586 65 598 325 1143 746 1564 189 190 392 336
639 463 324 165 665 259 1045 286 101 8 413 -3 525 -18z m9330 -150 c113 -38
147 -119 111 -265 -7 -30 -176 -469 -376 -975 -199 -506 -409 -1037 -465
-1180 -56 -143 -173 -440 -260 -660 -181 -459 -358 -907 -517 -1310 l-110
-280 -100 -60 c-127 -76 -266 -180 -343 -256 -33 -32 -64 -59 -68 -59 -4 0
-51 26 -105 59 -173 104 -395 208 -567 265 l-50 16 -122 288 c-291 683 -560
1312 -564 1316 -2 3 -119 -293 -259 -657 -140 -364 -269 -701 -288 -749 l-34
-86 -71 -12 c-307 -50 -649 -169 -921 -322 -150 -83 -154 -81 -177 67 -44 292
-150 527 -319 709 -33 35 -71 88 -84 117 -21 47 -258 602 -1238 2904 -126 297
-250 586 -274 643 -68 157 -72 260 -12 328 40 45 76 63 146 74 93 14 1120 24
1167 11 64 -17 132 -66 166 -118 19 -30 76 -187 153 -423 250 -758 780 -2280
795 -2280 3 0 185 598 405 1328 219 730 411 1352 426 1382 16 30 43 69 62 87
64 60 89 63 553 73 563 12 708 9 763 -14 83 -36 114 -102 93 -203 -6 -30 -110
-309 -232 -620 l-221 -565 28 -61 c16 -34 122 -244 236 -467 202 -395 319
-638 388 -809 34 -82 35 -83 46 -55 7 16 219 618 473 1338 254 719 471 1326
481 1347 31 59 76 105 123 125 37 15 94 18 452 24 514 10 645 7 710 -15z
m-14484 -396 c236 -18 453 -75 659 -171 642 -301 1089 -978 1180 -1788 5 -47
23 -233 40 -415 16 -181 43 -476 60 -655 16 -179 34 -374 39 -435 6 -60 17
-184 25 -275 9 -91 20 -221 26 -290 6 -69 13 -143 15 -165 21 -187 37 -395 37
-465 1 -133 -44 -215 -137 -254 -30 -13 -39 -12 -122 20 -321 120 -664 169
-1018 145 -97 -6 -182 -14 -190 -17 -10 -4 -15 0 -15 12 0 9 -9 114 -20 233
-11 119 -25 268 -30 331 -6 63 -13 135 -15 160 -3 25 -36 394 -75 820 -39 426
-72 798 -75 825 -3 28 -10 100 -16 160 -17 176 -68 302 -181 441 -114 141
-294 259 -483 315 -109 33 -297 37 -404 11 -204 -52 -407 -202 -538 -399 -94
-142 -153 -313 -153 -444 0 -47 212 -2412 226 -2521 l7 -48 -95 0 c-267 0
-608 -67 -814 -160 l-61 -27 -74 18 c-114 28 -250 42 -368 37 l-109 -4 -6 50
c-4 28 -56 596 -116 1262 -60 666 -128 1409 -150 1650 -22 241 -41 457 -44
479 -2 22 -23 255 -47 517 -42 467 -43 478 -26 531 19 60 67 128 113 158 52
34 120 48 352 69 125 11 243 22 262 24 145 17 219 18 267 2 121 -40 177 -133
303 -504 46 -133 84 -241 86 -240 1 2 30 58 64 126 93 186 168 291 304 428
260 259 556 401 926 443 85 10 117 13 226 19 16 1 91 -3 165 -9z m-4925 -264
c412 -58 781 -245 1158 -588 89 -81 126 -141 126 -203 0 -54 -25 -90 -127
-186 -48 -45 -191 -185 -317 -311 -131 -131 -244 -235 -262 -243 -46 -19 -121
-17 -171 5 -23 11 -75 51 -117 89 -132 123 -250 178 -443 207 -164 25 -294 17
-418 -26 -134 -46 -190 -115 -189 -230 1 -168 137 -254 497 -313 224 -37 577
-142 861 -255 379 -152 667 -381 839 -668 173 -286 245 -732 181 -1113 -45
-268 -168 -526 -348 -728 -385 -435 -1064 -682 -1816 -659 -226 7 -375 25
-549 68 -390 96 -726 277 -980 530 -162 160 -208 249 -199 378 3 37 12 80 21
96 29 53 560 628 602 652 80 46 162 19 295 -96 147 -127 329 -228 520 -289
187 -59 255 -68 424 -52 391 35 561 160 529 388 -14 97 -50 154 -130 208 -79
53 -156 79 -488 159 -448 110 -625 169 -855 286 -418 213 -684 512 -794 891
-111 384 -105 765 17 1058 130 315 370 560 712 729 263 130 519 199 865 231
128 12 421 4 556 -15z m12982 -4191 c33 -21 60 -71 71 -129 6 -27 21 -256 35
-509 14 -252 27 -461 30 -464 3 -3 123 1 265 8 284 15 314 12 369 -35 56 -47
63 -81 84 -445 23 -373 21 -393 -35 -457 -51 -58 -74 -63 -361 -80 -143 -8
-263 -16 -264 -18 -2 -2 28 -536 67 -1187 45 -771 67 -1197 61 -1221 -15 -68
-47 -105 -117 -138 -36 -17 -91 -23 -370 -39 -181 -11 -362 -20 -403 -20 -80
0 -140 20 -172 56 -46 52 -48 68 -94 843 -24 410 -55 935 -69 1166 -14 231
-25 433 -25 449 l0 28 -133 -7 c-153 -8 -200 1 -252 46 -53 47 -63 97 -81 398
-23 392 -23 418 7 471 38 70 87 89 255 101 76 5 139 11 140 12 1 1 -7 157 -17
347 -11 190 -17 365 -13 390 7 53 55 105 134 145 64 32 696 295 735 306 40 11
125 1 153 -17z m6426 -600 c287 -41 503 -129 713 -290 97 -75 326 -313 352
-367 47 -98 31 -124 -159 -260 -85 -61 -202 -150 -260 -196 -181 -146 -208
-144 -368 18 -96 96 -115 111 -184 139 -166 69 -370 83 -473 32 -82 -41 -116
-130 -81 -213 30 -72 139 -136 335 -196 200 -62 518 -214 706 -338 132 -88
292 -248 359 -361 113 -189 151 -356 143 -612 -10 -264 -61 -441 -186 -630
-56 -85 -207 -236 -297 -296 -380 -253 -945 -318 -1491 -174 -282 75 -532 217
-728 414 -152 153 -225 273 -225 371 0 81 22 115 138 212 59 50 166 140 239
201 198 166 214 166 378 -2 140 -144 312 -253 475 -299 77 -21 240 -30 330
-18 103 15 196 62 228 116 19 34 22 51 20 121 -3 71 -6 85 -31 118 -55 71
-115 101 -512 256 -326 127 -589 302 -741 493 -75 94 -164 269 -188 367 -46
193 -47 449 -2 625 103 397 414 665 881 759 182 37 420 41 629 10z m-3379
-224 c130 -28 316 -90 430 -144 507 -241 895 -726 996 -1249 24 -122 43 -384
36 -488 -10 -153 -75 -208 -282 -239 -68 -10 -481 -35 -1640 -100 -308 -17
-571 -33 -584 -36 -20 -4 -22 -9 -17 -40 4 -19 19 -65 35 -102 121 -297 451
-484 812 -459 257 19 541 132 710 284 46 41 97 82 114 90 43 23 97 20 147 -10
53 -31 438 -416 455 -455 23 -51 16 -123 -16 -174 -36 -56 -220 -223 -344
-311 -98 -71 -304 -182 -410 -222 -93 -34 -227 -71 -332 -90 -126 -22 -386
-30 -525 -16 -576 60 -1108 373 -1420 837 -165 246 -253 467 -302 754 -30 177
-30 465 1 635 127 715 578 1257 1226 1473 105 36 267 72 375 86 19 2 125 3
235 1 156 -3 222 -8 300 -25z m-4810 -281 c56 -16 110 -62 130 -111 15 -36 30
-262 96 -1393 86 -1491 85 -1475 99 -1696 16 -249 16 -340 -3 -374 -21 -40
-75 -91 -112 -105 -16 -7 -181 -21 -366 -32 -361 -21 -394 -19 -444 25 -20 18
-134 246 -176 356 -9 23 -16 18 -145 -117 -154 -162 -266 -250 -406 -323 -128
-66 -221 -89 -383 -96 -441 -19 -903 135 -1249 416 -561 455 -818 1205 -660
1920 177 797 824 1378 1639 1471 126 14 238 12 338 -5 264 -46 522 -207 737
-459 35 -42 67 -76 70 -76 3 0 22 69 44 153 79 316 112 392 179 414 21 7 138
19 260 26 292 19 305 19 352 6z m-5098 -274 c607 -98 1049 -604 1158 -1325 8
-58 42 -565 75 -1127 52 -899 57 -1029 46 -1073 -15 -58 -46 -96 -95 -117 -34
-15 -582 -52 -769 -53 -135 0 -179 24 -202 110 -5 19 -32 427 -60 905 -71
1230 -66 1171 -91 1250 -32 106 -77 183 -149 255 -128 129 -306 178 -489 135
-190 -45 -354 -210 -406 -410 -23 -89 -20 -177 40 -1209 52 -888 55 -952 40
-1001 -17 -61 -55 -99 -113 -114 -20 -5 -122 -15 -227 -20 -104 -6 -217 -13
-250 -16 -397 -29 -446 -18 -474 103 -6 26 -36 479 -66 1007 -30 528 -57 987
-60 1020 -25 246 -161 437 -362 504 -74 25 -220 28 -298 7 -152 -40 -299 -165
-374 -316 -25 -51 -48 -117 -57 -165 -17 -84 -18 -54 84 -1805 13 -228 10
-321 -14 -360 -24 -41 -72 -76 -123 -89 -57 -15 -771 -52 -811 -43 -68 17
-108 51 -135 116 -17 39 -24 145 -105 1566 -16 294 -32 560 -34 590 -2 30 -19
316 -37 636 -37 647 -38 632 28 705 49 54 98 65 333 79 298 17 332 16 379 -11
74 -41 106 -106 187 -376 27 -90 52 -163 55 -163 3 0 28 51 55 112 108 247
248 401 456 498 147 69 376 100 586 80 338 -31 607 -165 843 -418 l83 -90 44
67 c200 299 511 502 852 556 117 18 345 18 457 0z"/>
<path d="M3878 18090 c-281 -48 -559 -270 -672 -537 -58 -139 -70 -205 -71
-383 0 -143 3 -176 23 -244 123 -423 482 -700 907 -698 257 1 486 100 663 287
64 67 90 105 130 187 64 129 81 194 89 333 18 337 -169 707 -457 905 -187 128
-413 183 -612 150z"/>
<path d="M14387 13574 c-369 -57 -665 -283 -832 -636 -86 -182 -126 -368 -127
-588 -1 -389 124 -715 366 -955 261 -260 625 -364 1014 -290 442 84 762 424
859 912 27 138 25 434 -5 581 -103 510 -426 871 -867 968 -95 21 -299 25 -408
8z"/>
<path d="M20373 8205 c-195 -53 -409 -248 -525 -479 l-40 -79 69 6 c37 4 367
23 733 43 366 21 669 40 673 44 9 8 -52 102 -127 192 -112 136 -268 238 -416
272 -83 20 -295 20 -367 1z"/>
<path d="M14145 7756 c-254 -50 -471 -223 -585 -468 -59 -128 -82 -230 -87
-393 -4 -128 -2 -166 17 -254 72 -350 274 -583 590 -683 66 -20 95 -23 230
-23 129 1 169 5 240 24 151 40 285 117 404 230 196 188 296 467 266 741 -15
133 -34 199 -96 325 -61 124 -142 229 -244 313 -76 61 -256 153 -350 177 -89
22 -296 28 -385 11z"/>
<path d="M17595 22097 c-82 -39 -122 -95 -194 -268 -140 -337 -320 -833 -308
-845 3 -3 92 -36 199 -74 106 -37 212 -75 234 -83 l42 -15 6 61 c37 336 152
864 246 1131 22 63 28 92 21 99 -6 6 -53 13 -104 15 -81 3 -98 0 -142 -21z"/>
<path d="M20982 21785 c-40 -64 -72 -120 -72 -126 0 -11 102 -60 168 -79 34
-11 49 -11 81 0 36 11 44 10 87 -10 26 -13 71 -43 101 -67 59 -48 96 -55 131
-23 12 12 22 31 22 44 0 61 -144 222 -258 289 -46 27 -175 87 -186 87 -2 0
-35 -52 -74 -115z"/>
<path d="M19870 18220 c-20 -6 -21 -8 -5 -8 11 0 34 4 50 8 27 7 27 8 5 8 -14
0 -36 -4 -50 -8z"/>
<path d="M19710 18167 c-180 -69 -340 -170 -486 -309 l-76 -72 33 -9 c19 -5
72 -7 119 -5 148 7 210 51 324 226 67 103 90 131 146 174 19 15 33 28 30 28
-3 -1 -43 -15 -90 -33z"/>
</g>
</svg>
